# xmcd
#
# Track frame offsets:
#	150
#	16147
#	39532
#	62502
#	84260
#	107454
#	116855
#	140237
#	155375
#	176530
#	199455
#	216045
#	242390
#
# Disc length: 3713 seconds
#
# Revision: 0
# Processed by: cddbd v1.4PL0 Copyright (c) Steve Scherf et al.
# Submitted via: dBpowerAMP V4.0
#
DISCID=aa0e7f0d
DTITLE=Willard Grant Conspiracy - Willard Grant Conspiracy
DYEAR=1900
DGENRE=Alternative
TTITLE0=Another Lonely Night
TTITLE1=Color The Sun
TTITLE2=The Work Song
TTITLE3=How To Get To Heaven
TTITLE4=Archy´s Lullaby
TTITLE5=Go Jimmy Go
TTITLE6=I Miss You Best
TTITLE7=Cat Nap In The Boom Boom Room
TTITLE8=Front Porch
TTITLE9=Love Has No Meaning
TTITLE10=Sticky
TTITLE11=Right On Time
TTITLE12=The Visistor
EXTD=
EXTT0=
EXTT1=
EXTT2=
EXTT3=
EXTT4=
EXTT5=
EXTT6=
EXTT7=
EXTT8=
EXTT9=
EXTT10=
EXTT11=
EXTT12=
PLAYORDER=
